#!OML:ASF I:\Actors\actors\Patient Classification 1\Patient 1\Session 1\Subject1.ASF
:FULLY-SPECIFIED
:DEGREES
270
root 0.696113 17.5066 9.04062 10.4854 -1.23868 -10.6293
lowerback 2.47596 -0.305976 5.99091
upperback -7.0284 0.258416 3.407
thorax -8.82279 -0.150115 0.234877
lowerneck -14.5922 -4.34543 -2.74347
upperneck 23.9322 -7.11356 6.21787
head 10.3981 -2.81612 1.71317
rclavicle -3.10228e-014 6.85807e-014
rhumerus 7.45633 47.7512 -64.6108
rradius 90.304
rwrist 26.8042
rhand 4.39455 -52.0932
rfingers 7.12502
rthumb 29.7923 -79.7179
lclavicle -3.10228e-014 6.85807e-014
lhumerus 43.012 -59.3367 41.8559
lradius 54.5681
lwrist 39.648
lhand -27.6571 10.0104
lfingers 7.12502
lthumb -1.05473 39.9876
rfemur -6.69649 24.4511 26.3053
rtibia 2.59398
rfoot -10.1862 -24.1634
rtoes 1.2136
lfemur 3.3603 -46.5322 -8.94765
ltibia -4.75186
lfoot -22.8893 53.9296
ltoes 11.6659
271
root 0.697407 17.5032 9.04777 10.571 -2.01745 -10.7096
lowerback 2.37418 -0.132245 6.19192
upperback -6.95017 0.490231 3.40187
thorax -8.66785 -0.0468261 0.0921451
lowerneck -14.8177 -4.33379 -2.45987
upperneck 24.0467 -7.07173 5.82322
head 10.4536 -2.80988 1.52749
rclavicle -1.13059e-014 1.37161e-014
rhumerus 9.11888 46.7213 -63.7847
rradius 89.2458
rwrist 28.0888
rhand 6.4781 -51.3462
rfingers 7.12502
rthumb 31.7788 -78.5963
lclavicle -1.13059e-014 1.37161e-014
lhumerus 45.0541 -60.6619 37.2211
lradius 58.0432
lwrist 42.9617
lhand -27.7035 9.92231
lfingers 7.12502
lthumb -1.09956 39.8992
rfemur -6.81977 24.5463 26.3079
rtibia 2.61959
rfoot -9.88789 -23.5169
rtoes 0.424573
lfemur 3.79136 -46.4695 -9.21611
ltibia -4.85255
lfoot -23.9694 54.4279
ltoes 12.5835
272
root 0.697786 17.5018 9.05095 10.684 -2.72593 -10.8881
lowerback 2.30581 0.0116583 6.47228
upperback -6.88218 0.694565 3.45657
thorax -8.5455 0.0397582 -0.0267809
lowerneck -15.2356 -4.30858 -2.02512
upperneck 24.2584 -6.9874 5.17232
head 10.5637 -2.79483 1.22755
rclavicle 1.30018e-014 -4.31363e-014
rhumerus 11.6907 46.3425 -61.9674
rradius 88.3361
rwrist 28.0395
rhand 9.22439 -51.4857
rfingers 7.12502
rthumb 34.3903 -78.182
lclavicle 1.30018e-014 -4.31363e-014
lhumerus 46.6413 -61.6587 33.2703
lradius 61.1242
lwrist 43.2846
lhand -27.4895 9.59741
lfingers 7.12502
lthumb -0.89283 39.5753
rfemur -7.0116 24.6252 26.403
rtibia 2.69431
rfoot -9.66216 -22.8741
rtoes -0.317996
lfemur 4.04998 -46.1918 -9.20557
ltibia -4.96818
lfoot -24.7123 54.7148
ltoes 13.2542
273
root 0.702705 17.5018 9.05243 10.8081 -3.3598 -10.9139
lowerback 2.30141 0.0989343 6.65462
upperback -6.86874 0.823394 3.482
thorax -8.52283 0.0919484 -0.113299
lowerneck -14.8315 -4.14546 -1.882
upperneck 23.9187 -6.70778 4.93534
head 10.3342 -2.69756 1.16651
rclavicle -1.03554e-014 4.09496e-014
rhumerus 13.9761 45.9725 -60.5431
rradius 87.1835
rwrist 27.5785
rhand 12.4792 -51.5823
rfingers 7.12502
rthumb 37.4738 -77.5228
lclavicle -1.03554e-014 4.09496e-014
lhumerus 47.8466 -62.4055 29.9302
lradius 63.7783
lwrist 43.1816
lhand -27.7764 9.28876
lfingers 7.12502
lthumb -1.16994 39.2653
rfemur -7.21421 24.6191 26.307
rtibia 2.75287
rfoot -9.47122 -22.2511
rtoes -0.901202
lfemur 4.31036 -46.3103 -9.46288
ltibia -4.95727
lfoot -26.0144 55.1329
ltoes 14.51
274
root 0.705991 17.5023 9.05223 10.9187 -3.96703 -10.9096
lowerback 2.34037 0.176958 6.75497
upperback -6.85624 0.938959 3.51047
thorax -8.52684 0.142652 -0.149848
lowerneck -15.2349 -4.09073 -1.45516
upperneck 24.2137 -6.60126 4.33695
head 10.476 -2.66677 0.890165
rclavicle -1.33558e-014 6.84813e-014
rhumerus 16.3443 45.7472 -59.0127
rradius 85.7551
rwrist 27.0151
rhand 15.4165 -51.8729
rfingers 7.12502
rthumb 40.2436 -77.025
lclavicle -1.33558e-014 6.84813e-014
lhumerus 48.7693 -62.8948 27.1259
lradius 66.1471
lwrist 43.9497
lhand -28.4338 9.18195
lfingers 7.12502
lthumb -1.80491 39.1541
rfemur -7.41156 24.7439 26.1885
rtibia 2.81172
rfoot -9.25283 -21.8042
rtoes -1.48427
lfemur 4.51497 -46.3459 -9.70577
ltibia -4.94194
lfoot -27.1459 55.4685
ltoes 15.7327
275
root 0.707611 17.5034 9.05183 11.0385 -4.50654 -10.916
lowerback 2.38818 0.268596 6.86738
upperback -6.8686 1.07542 3.52294
thorax -8.56172 0.201078 -0.211659
lowerneck -14.9681 -4.00474 -1.39101
upperneck 23.9308 -6.45988 4.26718
head 10.3114 -2.61543 0.880218
rclavicle -5.70885e-015 -3.8763e-015
rhumerus 18.5381 45.5941 -57.5143
rradius 83.9932
rwrist 26.6643
rhand 17.5135 -51.801
rfingers 7.12502
rthumb 42.2121 -76.3195
lclavicle -5.70885e-015 -3.8763e-015
lhumerus 49.3648 -63.1946 24.9387
lradius 68.2839
lwrist 45.3429
lhand -28.9083 9.14865
lfingers 7.12502
lthumb -2.26312 39.1164
rfemur -7.63675 24.8375 26.0801
rtibia 2.89877
rfoot -9.11324 -21.3582
rtoes -1.7159
lfemur 4.61306 -46.1877 -9.82696
ltibia -4.95856
lfoot -27.8011 55.6887
ltoes 16.3917
276
root 0.705418 17.5042 9.05257 11.1354 -4.89738 -10.9639
lowerback 2.48725 0.323915 7.00311
upperback -6.92019 1.17483 3.55855
thorax -8.67265 0.238093 -0.257802
lowerneck -15.3518 -4.01959 -1.56861
upperneck 24.3331 -6.47254 4.31354
head 10.5407 -2.61686 0.916022
rclavicle 6.64065e-015 1.05356e-014
rhumerus 20.5492 45.6089 -56.1
rradius 81.8828
rwrist 26.0752
rhand 18.7111 -51.0999
rfingers 7.12502
rthumb 43.3325 -75.2272
lclavicle 6.64065e-015 1.05356e-014
lhumerus 49.4035 -63.3285 23.5493
lradius 70.2506
lwrist 46.6742
lhand -29.0215 9.05573
lfingers 7.12502
lthumb -2.37247 39.0223
rfemur -7.8191 24.9728 26.0482
rtibia 3.00485
rfoot -9.10929 -21.0408
rtoes -1.44517
lfemur 4.70511 -46.1599 -9.8716
ltibia -4.97516
lfoot -28.5166 55.9037
ltoes 16.9273
277
root 0.696284 17.5037 9.05303 11.1924 -5.20829 -11.1611
lowerback 2.5681 0.340796 7.17187
upperback -6.91953 1.226 3.68198
thorax -8.72015 0.255093 -0.225159
lowerneck -15.9769 -4.00719 -2.03349
upperneck 24.9808 -6.45129 4.61713
head 10.9296 -2.58936 1.09285
rclavicle 9.5603e-015 -1.95803e-014
rhumerus 22.8208 45.8958 -54.412
rradius 79.5923
rwrist 24.7161
rhand 19.3045 -50.3138
rfingers 7.12502
rthumb 43.8866 -74.2388
lclavicle 9.5603e-015 -1.95803e-014
lhumerus 48.8495 -63.2193 22.9031
lradius 72.0747
lwrist 47.2716
lhand -28.9381 9.18837
lfingers 7.12502
lthumb -2.29195 39.1558
rfemur -7.93271 25.2796 26.2353
rtibia 3.11531
rfoot -9.12048 -20.938
rtoes -1.26897
lfemur 4.863 -46.2804 -9.73765
ltibia -5.02554
lfoot -29.5038 56.1389
ltoes 17.7158
278
root 0.68869 17.5077 9.05329 11.3666 -5.66221 -10.8914
lowerback 2.41061 0.381303 6.81832
upperback -6.91614 1.23912 3.69123
thorax -8.62336 0.288091 -0.0208344
lowerneck -16.2176 -3.92635 -2.07575
upperneck 25.215 -6.31725 4.54336
head 11.0575 -2.53265 1.08862
rclavicle -4.29965e-014 6.18469e-014
rhumerus 25.1187 46.3022 -52.7307
rradius 77.0049
rwrist 23.8839
rhand 19.5899 -49.232
rfingers 7.12502
rthumb 44.1529 -73.0576
lclavicle -4.29965e-014 6.18469e-014
lhumerus 48.3376 -62.9944 22.3202
lradius 73.6797
lwrist 47.1736
lhand -29.4696 9.17631
lfingers 7.12502
lthumb -2.80526 39.1376
rfemur -8.28341 25.5727 25.7485
rtibia 3.20677
rfoot -9.11379 -20.7732
rtoes -1.12448
lfemur 4.86366 -46.8113 -10.1379
ltibia -4.91095
lfoot -31.2739 56.6306
ltoes 18.9083
